<svg version="1.1" id="Capa_1" xmlns="http://www.w3.org/2000/svg" xmlns:xlink="http://www.w3.org/1999/xlink" x="0px" y="0px"
	 viewBox="0 0 512 512" style="enable-background:new 0 0 512 512;" xml:space="preserve">
<g>
	<g>
		<g>
			<path d="M366,350H146c-8.284,0-15,6.716-15,15s6.716,15,15,15h220c8.284,0,15-6.716,15-15S374.284,350,366,350z"/>
			<path d="M366,410H146c-8.284,0-15,6.716-15,15s6.716,15,15,15h220c8.284,0,15-6.716,15-15S374.284,410,366,410z"/>
			<path d="M271,305c0,8.284,6.716,15,15,15h80c8.284,0,15-6.716,15-15s-6.716-15-15-15h-80C277.716,290,271,296.716,271,305z"/>
			<path d="M426,0H142.15c-3.979,0-7.794,1.581-10.606,4.394l-56.15,56.15C72.58,63.357,71,67.172,71,71.15V497
				c0,8.284,6.716,15,15,15h340c8.284,0,15-6.716,15-15V15C441,6.716,434.284,0,426,0z M411,482H101V77.364L148.363,30H411V482z"/>
			<path d="M217.144,194.182c-8.272,0-14.804,10.885-14.804,18.287c0,13.933,21.334,27.43,47.458,28.301v5.442
				c0,3.048,3.483,5.878,8.272,5.878c4.137,0,8.272-2.83,8.272-5.878v-6.313c25.471-4.136,42.887-20.464,42.887-47.458
				c0-29.389-23.076-39.621-42.887-47.023v-31.784c14.15,1.088,18.287,8.055,25.471,8.055c9.579,0,13.497-11.973,13.497-17.851
				c0-15.021-25.471-18.504-38.968-18.939v-5.442c0-3.048-4.136-5.878-8.272-5.878c-4.789,0-8.272,2.83-8.272,5.878v6.095
				c-23.076,3.266-43.539,16.545-43.539,44.193c0,27.865,23.511,37.226,43.539,44.846v35.267
				C233.688,207.026,226.287,194.182,217.144,194.182z M264.166,180.467c7.837,3.701,13.279,8.272,13.279,15.457
				c0,7.837-5.878,11.974-13.279,13.715V180.467z M238.042,126.479c0-5.225,4.137-10.232,13.933-12.191v25.906
				C243.702,136.71,238.042,132.792,238.042,126.479z"/>
		</g>
	</g>
</g>
<g>
</g>
<g>
</g>
<g>
</g>
<g>
</g>
<g>
</g>
<g>
</g>
<g>
</g>
<g>
</g>
<g>
</g>
<g>
</g>
<g>
</g>
<g>
</g>
<g>
</g>
<g>
</g>
<g>
</g>
</svg>
